<svg width="17" height="22" viewBox="0 0 17 22" fill="none" xmlns="http://www.w3.org/2000/svg">
<path d="M8.48063 21.4492C7.00705 20.1923 5.64118 18.8144 4.3973 17.3297C2.53063 15.1002 0.313966 11.7799 0.313966 8.61595C0.312312 5.31142 2.30225 2.33157 5.35521 1.06691C8.40817 -0.197751 11.9224 0.502058 14.258 2.83978C15.7939 4.36882 16.6542 6.44873 16.6474 8.61595C16.6474 11.7799 14.4307 15.1002 12.564 17.3297C11.3201 18.8144 9.95418 20.1923 8.48063 21.4492ZM8.48063 5.11595C7.2302 5.11595 6.07476 5.78304 5.44954 6.86595C4.82433 7.94885 4.82433 9.28304 5.44954 10.3659C6.07476 11.4488 7.2302 12.1159 8.48063 12.1159C10.4137 12.1159 11.9807 10.5489 11.9807 8.61595C11.9807 6.68295 10.4137 5.11595 8.48063 5.11595Z" fill="#F4FEFD"/>
</svg>
