<svg width="11" height="15" viewBox="0 0 11 15" fill="none" xmlns="http://www.w3.org/2000/svg">
<path d="M5.62012 14.3399C4.67282 13.5318 3.79476 12.646 2.99512 11.6916C1.79512 10.2583 0.370118 8.12382 0.370118 6.08983C0.369054 3.96548 1.64831 2.04987 3.61092 1.23687C5.57354 0.423874 7.83267 0.873751 9.33412 2.37657C10.3214 3.35953 10.8745 4.69662 10.8701 6.08983C10.8701 8.12382 9.44512 10.2583 8.24512 11.6916C7.44548 12.646 6.56742 13.5318 5.62012 14.3399ZM5.62012 3.83982C4.81627 3.83982 4.07349 4.26867 3.67156 4.96482C3.26964 5.66098 3.26964 6.51867 3.67156 7.21483C4.07349 7.91098 4.81627 8.33983 5.62012 8.33983C6.86276 8.33983 7.87012 7.33247 7.87012 6.08983C7.87012 4.84718 6.86276 3.83982 5.62012 3.83982Z" fill="#003030"/>
</svg>
