<svg width="19" height="20" viewBox="0 0 19 20" fill="none" xmlns="http://www.w3.org/2000/svg">
<path d="M17.6431 19.0835C7.68951 19.0977 0.135358 11.453 0.146007 1.58647C0.146007 0.942128 0.66834 0.41687 1.31267 0.41687H4.39192C4.97009 0.41687 5.46125 0.841688 5.54615 1.41359C5.74962 2.78427 6.1487 4.11867 6.73123 5.37603L6.85112 5.63479C7.01781 5.9946 6.90482 6.4221 6.58212 6.65256C5.62851 7.33356 5.26407 8.70435 6.00697 9.77398C6.93924 11.1162 8.11439 12.2911 9.45631 13.2229C10.5259 13.9656 11.8964 13.6012 12.5774 12.6478C12.808 12.3249 13.2358 12.2119 13.5958 12.3787L13.8534 12.498C15.1108 13.0805 16.4453 13.4796 17.8161 13.683C18.3881 13.7679 18.8127 14.259 18.8127 14.8372V17.9169C18.8127 18.5612 18.2891 19.0835 17.6447 19.0835H17.6431Z" fill="#F4FEFD"/>
</svg>
