<svg width="13" height="13" viewBox="0 0 13 13" fill="none" xmlns="http://www.w3.org/2000/svg">
<path d="M11.3881 12.9846C4.98941 12.9937 0.133176 8.07924 0.140022 1.7365C0.140022 1.32229 0.475809 0.984619 0.890022 0.984619H2.86954C3.24121 0.984619 3.55696 1.25772 3.61154 1.62537C3.74234 2.50652 3.99889 3.36435 4.37337 4.17265L4.45044 4.339C4.55761 4.5703 4.48497 4.84513 4.27752 4.99327C3.66448 5.43106 3.4302 6.31229 3.90778 6.99989C4.50709 7.86275 5.26255 8.61805 6.12521 9.21708C6.81278 9.69453 7.69386 9.46028 8.13164 8.84735C8.27989 8.63979 8.55487 8.56712 8.78631 8.67433L8.9519 8.75104C9.76025 9.12549 10.6181 9.38205 11.4994 9.51284C11.867 9.5674 12.14 9.88313 12.14 10.2548V12.2346C12.14 12.6488 11.8034 12.9846 11.3892 12.9846H11.3881Z" fill="#003030"/>
</svg>
