<svg width="23" height="25" viewBox="0 0 23 25" fill="none" xmlns="http://www.w3.org/2000/svg">
<path d="M22.0884 1.27979C21.7071 0.897787 21.1095 0.843885 20.4899 1.13683H20.4879C19.8366 1.44618 2.05504 10.4478 1.33226 10.8158C1.20121 10.8697 0.0495232 11.3759 0.168664 12.5031C0.273904 13.5202 1.19922 13.9421 1.3124 13.9913L5.83178 15.8169C6.13161 16.9957 7.23763 21.343 7.48187 22.2711C7.63476 22.85 7.88297 23.6116 8.31982 23.7686C8.70106 23.9421 9.08231 23.7827 9.32655 23.5554L12.0906 20.5298L16.5524 24.6358L16.6596 24.7108C16.9614 24.8701 17.2513 24.9498 17.5293 24.9498C17.7438 24.9498 17.9483 24.9006 18.1449 24.8068C18.814 24.4834 19.0801 23.7311 19.1079 23.6444L22.4418 3.20152C22.6444 2.10941 22.3624 1.55399 22.0884 1.27979ZM9.81899 16.5481L8.294 21.3477L6.76901 15.3482L18.4606 5.14902L9.81899 16.5481Z" fill="#F4FEFD"/>
</svg>
