<svg width="24" height="25" viewBox="0 0 24 25" fill="none" xmlns="http://www.w3.org/2000/svg">
<path d="M21.1429 0.949829H2.85714C1.28 0.949829 0 2.22983 0 3.80697V22.0927C0 23.6698 1.28 24.9498 2.85714 24.9498H21.1429C22.72 24.9498 24 23.6698 24 22.0927V3.80697C24 2.22983 22.72 0.949829 21.1429 0.949829ZM19.2686 17.5212L17.1371 17.5155C17.1371 17.5155 17.0914 17.5212 17.0171 17.5212C16.8457 17.5212 16.4914 17.4755 16.0743 17.1898C15.3257 16.6698 14.6114 15.3784 14.0457 15.3784C14.0057 15.3784 13.9714 15.3841 13.9371 15.3955C13.4457 15.5498 13.2971 16.0412 13.2971 16.6412C13.2971 16.8527 13.1486 16.9498 12.7486 16.9498H11.6457C10.4114 16.9498 9.21714 16.9212 7.87429 15.4527C5.89714 13.2869 4.04571 9.43554 4.04571 9.43554C4.04571 9.43554 3.94286 9.21269 4.05143 9.08126C4.15429 8.96126 4.39429 8.94983 4.48571 8.94983C4.50857 8.94983 4.52 8.94983 4.52 8.94983H6.80571C6.80571 8.94983 7.01714 8.98983 7.17143 9.10412C7.30286 9.20126 7.37143 9.3784 7.37143 9.3784C7.37143 9.3784 7.76 10.1327 8.24572 10.9841C9.06286 12.3898 9.50286 12.8584 9.81714 12.8584C9.86857 12.8584 9.92 12.8469 9.97143 12.8184C10.44 12.5612 10.3029 10.4813 10.3029 10.4813C10.3029 10.4813 10.3086 9.72697 10.0629 9.39554C9.87429 9.13269 9.51429 9.0584 9.35429 9.03554C9.22857 9.0184 9.43429 8.72126 9.70857 8.58412C10.0629 8.41269 10.6514 8.3784 11.36 8.3784H11.7029C12.3714 8.38983 12.3886 8.4584 12.6514 8.52126C13.44 8.70983 13.1714 9.44697 13.1714 11.2127C13.1714 11.7784 13.0686 12.5727 13.4743 12.8412C13.5029 12.8584 13.5429 12.8698 13.5943 12.8698C13.8571 12.8698 14.4229 12.5327 15.3257 11.0069C15.8286 10.1384 16.2171 9.27554 16.2171 9.27554C16.2171 9.27554 16.3029 9.12126 16.4343 9.04126C16.56 8.96697 16.56 8.96697 16.7257 8.96697H16.7429C16.9257 8.96697 18.7429 8.94983 19.1429 8.94983H19.1886C19.5714 8.94983 19.92 8.95554 19.9829 9.18983C20.0743 9.54412 19.7029 10.1784 18.7257 11.4927C17.1143 13.6469 16.9314 13.4869 18.2686 14.7327C19.5486 15.9212 19.8114 16.4984 19.8571 16.5727C20.3886 17.4527 19.2686 17.5212 19.2686 17.5212Z" fill="#F4FEFD"/>
</svg>
