<svg width="379" height="347" viewBox="0 0 379 347" fill="none" xmlns="http://www.w3.org/2000/svg">
<g opacity="0.2">
<path opacity="0.5" d="M267.463 247.585C205.426 247.673 158.343 199.97 158.409 138.402C158.409 134.381 161.665 131.104 165.681 131.104H184.873C188.476 131.104 191.538 133.756 192.067 137.324C193.335 145.877 195.822 154.203 199.453 162.049L200.2 163.665C201.239 165.91 200.535 168.578 198.524 170.016C192.58 174.265 190.309 182.819 194.939 189.493C200.749 197.868 208.074 205.2 216.438 211.014C223.104 215.649 231.646 213.376 235.891 207.426C237.328 205.412 239.994 204.706 242.238 205.747L243.843 206.492C251.68 210.126 259.998 212.617 268.542 213.885C272.107 214.415 274.753 217.479 274.753 221.087V240.305C274.753 244.325 271.49 247.585 267.474 247.585H267.463Z" fill="#F4FEFD"/>
<path opacity="0.5" d="M300.104 48.6859C300.623 49.6609 300.254 50.8729 299.279 51.393L254.768 75.1505C253.195 75.9902 251.394 74.5061 251.916 72.8002L257.809 53.5455C258.133 52.4867 257.535 51.3645 256.472 51.0591C222.583 41.3234 186.846 45.1026 155.618 61.7701C123.796 78.7551 100.463 107.088 89.9168 141.551C79.3686 176.01 82.8736 212.473 99.7811 244.225C103.277 250.79 97.7148 252.395 91.1355 255.906C84.5562 259.418 79.4501 263.507 75.9545 256.943C55.6662 218.841 51.4625 175.081 64.1206 133.728C76.7755 92.376 104.773 58.3775 142.959 37.9962C180.557 17.929 223.596 13.4296 264.377 25.2549C265.435 25.5618 266.551 24.9687 266.874 23.914L272.777 4.6261C273.298 2.92272 275.616 2.69778 276.453 4.26936L300.104 48.6859Z" fill="#F4FEFD"/>
<path opacity="0.5" d="M281.948 298.749C288.529 295.237 296.706 297.711 300.2 304.273C303.694 310.834 301.188 319.011 294.607 322.523C287.994 326.053 279.849 323.562 276.355 317C272.861 310.438 275.37 302.26 281.948 298.749Z" fill="#F4FEFD"/>
<path opacity="0.5" d="M326.53 262.384C333.111 258.872 341.288 261.346 344.782 267.908C348.276 274.469 345.77 282.645 339.189 286.158C332.576 289.688 324.431 287.196 320.937 280.635C317.443 274.073 319.952 265.895 326.53 262.384Z" fill="#F4FEFD"/>
<path opacity="0.5" d="M354.419 211.581C361 208.068 369.177 210.543 372.671 217.104C376.165 223.666 373.659 231.842 367.078 235.355C360.465 238.885 352.32 236.393 348.826 229.831C345.332 223.27 347.841 215.092 354.419 211.581Z" fill="#F4FEFD"/>
<path opacity="0.5" d="M226.24 315.913C232.821 312.4 240.998 314.874 244.492 321.436C247.986 327.998 245.48 336.174 238.899 339.686C232.286 343.216 224.141 340.725 220.647 334.163C217.153 327.601 219.659 319.425 226.24 315.913Z" fill="#F4FEFD"/>
<path opacity="0.5" d="M169.268 310.402C175.85 306.89 184.027 309.364 187.52 315.926C191.014 322.487 188.509 330.664 181.927 334.176C175.314 337.706 167.169 335.214 163.675 328.653C160.181 322.091 162.69 313.913 169.268 310.402Z" fill="#F4FEFD"/>
<path opacity="0.5" d="M117.801 283.097C124.383 279.584 132.56 282.058 136.054 288.62C139.547 295.182 137.042 303.358 130.461 306.871C123.848 310.4 115.702 307.909 112.208 301.347C108.715 294.786 111.223 286.608 117.801 283.097Z" fill="#F4FEFD"/>
</g>
</svg>
