<svg width="153" height="27" viewBox="0 0 153 27" fill="none" xmlns="http://www.w3.org/2000/svg">
<path d="M4.97909 11.8697C4.15181 11.8697 3.4273 11.7308 2.80555 11.4529C2.18381 11.175 1.66483 10.7833 1.24863 10.278C0.832417 9.77272 0.518976 9.17394 0.308303 8.48168C0.102768 7.78436 0 7.01884 0 6.18509C0 5.07343 0.184982 4.09315 0.554945 3.24425C0.924908 2.39029 1.47728 1.72329 2.21207 1.24326C2.952 0.758169 3.87434 0.515625 4.97909 0.515625C6.03759 0.515625 6.91883 0.760695 7.62278 1.25084C8.32674 1.73593 8.82773 2.36503 9.12576 3.13813L8.49374 3.39584C8.22654 2.71368 7.79235 2.17049 7.19116 1.76625C6.58997 1.35695 5.85261 1.1523 4.97909 1.1523C4.02849 1.1523 3.23718 1.36706 2.60516 1.79656C1.97828 2.22102 1.50554 2.81222 1.18697 3.57017C0.868386 4.32812 0.703958 5.19976 0.693681 6.18509C0.683404 7.17043 0.837555 8.04207 1.15613 8.80002C1.47471 9.55797 1.95258 10.1542 2.58974 10.5888C3.23204 11.0183 4.02849 11.2331 4.97909 11.2331C5.92969 11.2331 6.69787 11.0486 7.28365 10.6798C7.86942 10.3058 8.29591 9.78788 8.5631 9.12594C8.83544 8.46399 8.97161 7.69594 8.97161 6.82177H6.0119V6.18509H9.63446C9.64987 6.32658 9.65758 6.4529 9.65758 6.56407C9.66272 6.67523 9.66529 6.76619 9.66529 6.83693C9.66529 7.78689 9.50343 8.64337 9.17971 9.40638C8.85599 10.1643 8.34729 10.7657 7.65361 11.2103C6.96507 11.6499 6.07356 11.8697 4.97909 11.8697Z" fill="white"/>
<path d="M11.1992 11.6421V0.727539H18.0589V1.57644H12.0855V5.72242H17.134V6.57133H12.0855V10.7932H18.0589V11.6421H11.1992Z" fill="white"/>
<path d="M19.916 11.6421V0.727539H22.0433L26.8683 8.00385V0.727539H28.9955V11.6421H26.8683L22.0433 4.36569V11.6421H19.916Z" fill="white"/>
<path d="M34.0053 11.6419V2.00835H30.2209V0.727417H39.1617V2.00835H35.3772V11.6419H34.0053Z" fill="white"/>
<path d="M40.543 11.6419V0.727417H41.9149V10.361H47.0636V11.6419H40.543Z" fill="white"/>
<path d="M48.3674 11.6419V0.727417H55.4583V2.22058H49.9783V5.28269H54.5334V6.77585H49.9783V10.1487H55.4583V11.6419H48.3674Z" fill="white"/>
<path d="M57.3094 11.6419V0.727417H59.19L62.8588 7.97341L66.5277 0.727417H68.4084V11.6419H66.4506V5.12352L63.2289 11.6419H62.4888L59.2672 5.12352V11.6419H57.3094Z" fill="white"/>
<path d="M70.5723 11.6421V0.727539H77.8174V2.65273H72.6688V4.98721H76.8925V6.9124H72.6688V9.71682H77.8174V11.6421H70.5723Z" fill="white"/>
<path d="M79.6643 11.6419V0.727417H81.7916L86.6165 8.00373V0.727417H88.7438V11.6419H86.6165L81.7916 4.36557V11.6419H79.6643Z" fill="white"/>
<path d="M97.2207 11.6419V0.727417H98.8316V10.1487H103.857V11.6419H97.2207Z" fill="white"/>
<path d="M105.166 11.6419V0.727417H112.256V2.22058H106.776V5.28269H111.332V6.77585H106.776V10.1487H112.256V11.6419H105.166Z" fill="white"/>
<path d="M113.337 11.6419L117.052 0.727417H118.963L122.678 11.6419H121.252L117.776 1.51568H118.208L114.763 11.6419H113.337ZM115.125 9.0876V7.82182H120.89V9.0876H115.125Z" fill="white"/>
<path d="M128.683 11.8692C127.984 11.8692 127.318 11.748 126.686 11.5054C126.054 11.2578 125.494 10.894 125.006 10.414C124.523 9.93395 124.14 9.34022 123.858 8.6328C123.58 7.92538 123.441 7.10932 123.441 6.18462C123.441 4.97695 123.675 3.9512 124.143 3.10735C124.616 2.25844 125.248 1.61166 126.039 1.16699C126.835 0.722332 127.717 0.5 128.683 0.5C130.111 0.5 131.234 0.825918 132.051 1.47775C132.868 2.12959 133.415 3.05176 133.693 4.24427L131.55 4.54745C131.349 3.91077 131.021 3.40295 130.563 3.02397C130.111 2.63994 129.53 2.4454 128.821 2.44035C128.117 2.43024 127.532 2.57931 127.064 2.88754C126.596 3.19577 126.244 3.63286 126.008 4.19879C125.777 4.76473 125.661 5.42667 125.661 6.18462C125.661 6.94257 125.777 7.59946 126.008 8.15529C126.244 8.71112 126.596 9.14315 127.064 9.45138C127.532 9.75962 128.117 9.91879 128.821 9.92889C129.299 9.939 129.731 9.85815 130.116 9.68635C130.507 9.51455 130.836 9.24421 131.103 8.87534C131.37 8.50647 131.56 8.03402 131.673 7.45798H129.916V5.86628H133.908C133.919 5.93197 133.926 6.04819 133.931 6.21494C133.937 6.38169 133.939 6.4777 133.939 6.50296C133.939 7.54893 133.723 8.47615 133.292 9.28463C132.86 10.0931 132.251 10.7273 131.465 11.1871C130.679 11.6419 129.751 11.8692 128.683 11.8692Z" fill="white"/>
<path d="M139.769 11.8694C138.937 11.8694 138.197 11.7002 137.55 11.3616C136.907 11.018 136.401 10.538 136.031 9.92146C135.666 9.29994 135.484 8.57231 135.484 7.73857V0.727539H136.378V7.55666C136.378 8.17818 136.483 8.71127 136.694 9.15593C136.91 9.59554 137.187 9.95431 137.526 10.2322C137.871 10.5102 138.238 10.7148 138.629 10.8462C139.024 10.9776 139.405 11.0433 139.769 11.0433C140.134 11.0433 140.514 10.9776 140.91 10.8462C141.306 10.7148 141.673 10.5102 142.012 10.2322C142.351 9.95431 142.626 9.59554 142.837 9.15593C143.053 8.71127 143.161 8.17818 143.161 7.55666V0.727539H144.055V7.73857C144.055 8.56726 143.87 9.29236 143.5 9.91388C143.135 10.5304 142.629 11.0104 141.981 11.354C141.339 11.6976 140.602 11.8694 139.769 11.8694Z" fill="white"/>
<path d="M146.217 11.6419V0.727417H153V1.36409H146.865V5.86631H152.075V6.50299H146.865V11.0052H153V11.6419H146.217Z" fill="white"/>
<path d="M5.72221 26.4996C5.22893 26.4996 4.79114 26.398 4.40884 26.1949C4.02655 25.9918 3.72595 25.7068 3.50706 25.3399C3.28816 24.9701 3.17871 24.538 3.17871 24.0438V19.8145H3.56718V23.9165C3.56718 24.3197 3.63654 24.6638 3.77528 24.9488C3.91402 25.2308 4.09283 25.4597 4.31173 25.6355C4.53062 25.8084 4.76493 25.9357 5.01466 26.0175C5.26438 26.0964 5.50023 26.1358 5.72221 26.1358C5.94419 26.1358 6.18004 26.0964 6.42977 26.0175C6.67949 25.9357 6.9138 25.8084 7.1327 25.6355C7.35159 25.4597 7.53041 25.2308 7.66914 24.9488C7.80788 24.6638 7.87725 24.3197 7.87725 23.9165V19.8145H8.26571V24.0438C8.26571 24.535 8.15626 24.9655 7.93737 25.3354C7.71847 25.7022 7.41788 25.9887 7.03558 26.1949C6.65329 26.398 6.2155 26.4996 5.72221 26.4996Z" fill="white"/>
<path d="M10.4902 26.3632V19.8145H10.8787L14.9298 25.681V19.8145H15.3182V26.3632H14.9298L10.8787 20.4875V26.3632H10.4902Z" fill="white"/>
<path d="M17.6309 26.3632V19.8145H18.0194V26.3632H17.6309Z" fill="white"/>
<path d="M25.5771 26.4911L23.8845 24.8357L24.1897 24.5356L25.873 26.191L25.5771 26.4911ZM22.9503 26.5002C22.2875 26.5002 21.7341 26.3547 21.2901 26.0636C20.8492 25.7726 20.5178 25.3709 20.2958 24.8585C20.0739 24.3461 19.9629 23.7564 19.9629 23.0894C19.9629 22.4224 20.0739 21.8327 20.2958 21.3204C20.5178 20.808 20.8492 20.4063 21.2901 20.1152C21.7341 19.8242 22.2875 19.6787 22.9503 19.6787C23.6132 19.6787 24.165 19.8242 24.6059 20.1152C25.0499 20.4063 25.3828 20.808 25.6048 21.3204C25.8268 21.8327 25.9378 22.4224 25.9378 23.0894C25.9378 23.7564 25.8268 24.3461 25.6048 24.8585C25.3828 25.3709 25.0499 25.7726 24.6059 26.0636C24.165 26.3547 23.6132 26.5002 22.9503 26.5002ZM22.9503 26.1182C23.5207 26.1182 23.9955 25.9893 24.3747 25.7316C24.757 25.4709 25.0437 25.1132 25.2348 24.6584C25.426 24.2036 25.5216 23.6806 25.5216 23.0894C25.5216 22.4982 25.426 21.9752 25.2348 21.5205C25.0437 21.0627 24.757 20.7049 24.3747 20.4472C23.9955 20.1895 23.5207 20.0607 22.9503 20.0607C22.38 20.0607 21.9052 20.1895 21.526 20.4472C21.1498 20.7049 20.8662 21.0627 20.675 21.5205C20.4839 21.9752 20.3852 22.4982 20.3791 23.0894C20.3729 23.6806 20.4654 24.2036 20.6565 24.6584C20.8477 25.1132 21.1344 25.4709 21.5167 25.7316C21.9021 25.9893 22.38 26.1182 22.9503 26.1182Z" fill="white"/>
<path d="M30.3316 26.4996C29.8383 26.4996 29.4005 26.398 29.0182 26.1949C28.6359 25.9918 28.3353 25.7068 28.1164 25.3399C27.8975 24.9701 27.7881 24.538 27.7881 24.0438V19.8145H28.1765V23.9165C28.1765 24.3197 28.2459 24.6638 28.3847 24.9488C28.5234 25.2308 28.7022 25.4597 28.9211 25.6355C29.14 25.8084 29.3743 25.9357 29.624 26.0175C29.8738 26.0964 30.1096 26.1358 30.3316 26.1358C30.5536 26.1358 30.7894 26.0964 31.0391 26.0175C31.2889 25.9357 31.5232 25.8084 31.7421 25.6355C31.961 25.4597 32.1398 25.2308 32.2785 24.9488C32.4173 24.6638 32.4866 24.3197 32.4866 23.9165V19.8145H32.8751V24.0438C32.8751 24.535 32.7656 24.9655 32.5467 25.3354C32.3278 25.7022 32.0272 25.9887 31.645 26.1949C31.2627 26.398 30.8249 26.4996 30.3316 26.4996Z" fill="white"/>
<path d="M35.0996 26.3632V19.8145H39.1692V20.1965H35.4881V22.8978H38.6143V23.2798H35.4881V25.9812H39.1692V26.3632H35.0996Z" fill="white"/>
<path d="M46.1869 26.5002C45.7368 26.5002 45.3314 26.429 44.9707 26.2865C44.613 26.1409 44.3155 25.9363 44.0781 25.6725C43.8438 25.4088 43.6866 25.0965 43.6064 24.7357L43.9949 24.6629C44.1151 25.1116 44.371 25.4664 44.7626 25.7271C45.1541 25.9878 45.6289 26.1182 46.1869 26.1182C46.5754 26.1182 46.9145 26.0576 47.2043 25.9363C47.4941 25.815 47.7192 25.6452 47.8795 25.4269C48.0398 25.2056 48.12 24.9479 48.12 24.6538C48.12 24.4325 48.0784 24.2476 47.9951 24.099C47.9119 23.9505 47.8055 23.8307 47.676 23.7397C47.5496 23.6458 47.417 23.5715 47.2783 23.5169C47.1396 23.4623 47.0162 23.4199 46.9083 23.3896L45.2435 22.8984C45.003 22.8287 44.7949 22.7438 44.6192 22.6438C44.4465 22.5437 44.3047 22.43 44.1937 22.3027C44.0828 22.1753 43.9995 22.0359 43.944 21.8843C43.8916 21.7327 43.8654 21.5705 43.8654 21.3977C43.8654 21.0642 43.9563 20.7686 44.1382 20.5109C44.3232 20.2501 44.5791 20.047 44.9059 19.9015C45.2327 19.7529 45.6104 19.6787 46.0389 19.6787C46.4736 19.6787 46.8636 19.7575 47.2089 19.9151C47.5542 20.0728 47.8363 20.2956 48.0552 20.5836C48.2772 20.8686 48.4159 21.2036 48.4714 21.5887L48.083 21.6615C48.0398 21.3431 47.9257 21.0642 47.7408 20.8247C47.5558 20.5821 47.3168 20.3942 47.024 20.2608C46.7311 20.1274 46.4027 20.0607 46.0389 20.0607C45.6905 20.0607 45.3838 20.1198 45.1186 20.238C44.8566 20.3563 44.6516 20.5154 44.5036 20.7155C44.3556 20.9156 44.2816 21.14 44.2816 21.3886C44.2816 21.6493 44.3525 21.8585 44.4943 22.0162C44.6392 22.1708 44.815 22.2921 45.0215 22.38C45.2281 22.4649 45.4254 22.5346 45.6135 22.5892L46.9916 22.9985C47.1087 23.0318 47.2521 23.0818 47.4217 23.1485C47.5912 23.2122 47.7577 23.3047 47.9211 23.426C48.0876 23.5472 48.2248 23.7079 48.3327 23.908C48.4437 24.1051 48.4992 24.3537 48.4992 24.6538C48.4992 24.9358 48.4452 25.1905 48.3373 25.4178C48.2294 25.6452 48.0737 25.8393 47.8702 26C47.6668 26.1606 47.4232 26.2834 47.1396 26.3683C46.8559 26.4562 46.5384 26.5002 46.1869 26.5002Z" fill="white"/>
<path d="M50.3477 26.3632V19.8145H50.7361V22.8978H54.7687V19.8145H55.1572V26.3632H54.7687V23.2798H50.7361V26.3632H50.3477Z" fill="white"/>
<path d="M59.9962 26.5002C59.3334 26.5002 58.78 26.3547 58.336 26.0636C57.8951 25.7726 57.5637 25.3709 57.3417 24.8585C57.1197 24.3461 57.0088 23.7564 57.0088 23.0894C57.0088 22.4224 57.1197 21.8327 57.3417 21.3204C57.5637 20.808 57.8951 20.4063 58.336 20.1152C58.78 19.8242 59.3334 19.6787 59.9962 19.6787C60.6591 19.6787 61.2109 19.8242 61.6518 20.1152C62.0957 20.4063 62.4287 20.808 62.6507 21.3204C62.8727 21.8327 62.9837 22.4224 62.9837 23.0894C62.9837 23.7564 62.8727 24.3461 62.6507 24.8585C62.4287 25.3709 62.0957 25.7726 61.6518 26.0636C61.2109 26.3547 60.6591 26.5002 59.9962 26.5002ZM59.9962 26.1182C60.5666 26.1182 61.0414 25.9893 61.4206 25.7316C61.8029 25.4709 62.0896 25.1132 62.2807 24.6584C62.4719 24.2036 62.5675 23.6806 62.5675 23.0894C62.5675 22.4982 62.4719 21.9752 62.2807 21.5205C62.0896 21.0627 61.8029 20.7049 61.4206 20.4472C61.0414 20.1895 60.5666 20.0607 59.9962 20.0607C59.4258 20.0607 58.9511 20.1895 58.5718 20.4472C58.1957 20.7049 57.9121 21.0627 57.7209 21.5205C57.5298 21.9752 57.4311 22.4982 57.425 23.0894C57.4188 23.6806 57.5113 24.2036 57.7024 24.6584C57.8936 25.1132 58.1803 25.4709 58.5626 25.7316C58.948 25.9893 59.4258 26.1182 59.9962 26.1182Z" fill="white"/>
<path d="M64.834 26.3632V19.8145H67.285C67.3497 19.8145 67.416 19.8175 67.4838 19.8236C67.5517 19.8266 67.6272 19.8357 67.7104 19.8509C68.0311 19.8994 68.3086 20.0146 68.5429 20.1965C68.7803 20.3754 68.9622 20.6028 69.0886 20.8786C69.218 21.1515 69.2828 21.4517 69.2828 21.7791C69.2828 22.1065 69.218 22.4082 69.0886 22.6841C68.9622 22.9569 68.7803 23.1843 68.5429 23.3662C68.3086 23.5451 68.0311 23.6588 67.7104 23.7073C67.6272 23.7194 67.5517 23.7285 67.4838 23.7346C67.416 23.7407 67.3497 23.7437 67.285 23.7437H65.2224V26.3632H64.834ZM65.2224 23.3617H67.285C67.3374 23.3617 67.3991 23.3587 67.47 23.3526C67.544 23.3465 67.618 23.3374 67.692 23.3253C67.9478 23.2768 68.1621 23.1767 68.3348 23.0252C68.5105 22.8736 68.6431 22.6901 68.7325 22.4749C68.8219 22.2566 68.8666 22.0247 68.8666 21.7791C68.8666 21.5335 68.8219 21.3031 68.7325 21.0878C68.6431 20.8696 68.5105 20.6846 68.3348 20.533C68.1621 20.3814 67.9478 20.2814 67.692 20.2329C67.618 20.2177 67.544 20.2086 67.47 20.2056C67.3991 20.1995 67.3374 20.1965 67.285 20.1965H65.2224V23.3617Z" fill="white"/>
<path d="M76.5267 26.5C75.8639 26.5 75.3105 26.3545 74.8665 26.0634C74.4256 25.7724 74.0942 25.3707 73.8722 24.8583C73.6503 24.3459 73.5393 23.7562 73.5393 23.0892C73.5393 22.4222 73.6503 21.8325 73.8722 21.3202C74.0942 20.8078 74.4256 20.4061 74.8665 20.115C75.3105 19.824 75.8639 19.6785 76.5267 19.6785C77.1896 19.6785 77.7414 19.824 78.1823 20.115C78.6263 20.4061 78.9592 20.8078 79.1812 21.3202C79.4032 21.8325 79.5142 22.4222 79.5142 23.0892C79.5142 23.7562 79.4032 24.3459 79.1812 24.8583C78.9592 25.3707 78.6263 25.7724 78.1823 26.0634C77.7414 26.3545 77.1896 26.5 76.5267 26.5ZM76.5267 26.118C77.0971 26.118 77.5719 25.9891 77.9511 25.7314C78.3334 25.4707 78.6201 25.113 78.8112 24.6582C79.0024 24.2034 79.098 23.6804 79.098 23.0892C79.098 22.498 79.0024 21.975 78.8112 21.5203C78.6201 21.0625 78.3334 20.7047 77.9511 20.447C77.5719 20.1893 77.0971 20.0605 76.5267 20.0605C75.9564 20.0605 75.4816 20.1893 75.1024 20.447C74.7262 20.7047 74.4426 21.0625 74.2514 21.5203C74.0603 21.975 73.9616 22.498 73.9555 23.0892C73.9493 23.6804 74.0418 24.2034 74.233 24.6582C74.4241 25.113 74.7108 25.4707 75.0931 25.7314C75.4785 25.9891 75.9564 26.118 76.5267 26.118Z" fill="white"/>
<path d="M81.3643 26.3632V19.8145H85.0639V20.1965H81.7528V22.8978H84.509V23.2798H81.7528V26.3632H81.3643Z" fill="white"/>
<path d="M89.6006 26.3632V19.8145H89.9705L92.8007 25.8993L95.6032 19.8145H95.9917V26.3541H95.6032V20.7331L93.0135 26.3632H92.5788L89.989 20.7331V26.3632H89.6006Z" fill="white"/>
<path d="M98.2119 26.3632V19.8145H102.281V20.1965H98.6003V22.8978H101.726V23.2798H98.6003V25.9812H102.281V26.3632H98.2119Z" fill="white"/>
<path d="M104.312 26.3632V19.8145H104.7L108.752 25.681V19.8145H109.14V26.3632H108.752L104.7 20.4875V26.3632H104.312Z" fill="white"/>
<path d="M111.268 21.4426L111.296 21.2061C111.404 21.2121 111.476 21.1879 111.513 21.1333C111.55 21.0757 111.569 21.0029 111.569 20.915C111.572 20.8241 111.574 20.7301 111.574 20.6331H111.268V19.8145H111.823V20.9059C111.823 21.106 111.768 21.2546 111.657 21.3516C111.546 21.4486 111.416 21.4789 111.268 21.4426Z" fill="white"/>
<path d="M116.158 26.5C115.708 26.5 115.303 26.4288 114.942 26.2863C114.584 26.1407 114.287 25.9361 114.049 25.6723C113.815 25.4086 113.658 25.0963 113.578 24.7355L113.966 24.6627C114.086 25.1114 114.342 25.4662 114.734 25.7269C115.125 25.9876 115.6 26.118 116.158 26.118C116.547 26.118 116.886 26.0574 117.176 25.9361C117.465 25.8148 117.69 25.645 117.851 25.4267C118.011 25.2054 118.091 24.9477 118.091 24.6536C118.091 24.4323 118.05 24.2474 117.966 24.0988C117.883 23.9503 117.777 23.8305 117.647 23.7395C117.521 23.6456 117.388 23.5713 117.25 23.5167C117.111 23.4621 116.988 23.4197 116.88 23.3894L115.215 22.8982C114.974 22.8285 114.766 22.7436 114.59 22.6436C114.418 22.5435 114.276 22.4298 114.165 22.3025C114.054 22.1751 113.971 22.0357 113.915 21.8841C113.863 21.7325 113.837 21.5703 113.837 21.3975C113.837 21.064 113.928 20.7684 114.109 20.5107C114.294 20.2499 114.55 20.0468 114.877 19.9013C115.204 19.7527 115.582 19.6785 116.01 19.6785C116.445 19.6785 116.835 19.7573 117.18 19.9149C117.525 20.0726 117.808 20.2954 118.026 20.5834C118.248 20.8684 118.387 21.2034 118.443 21.5885L118.054 21.6613C118.011 21.3429 117.897 21.064 117.712 20.8245C117.527 20.5819 117.288 20.394 116.995 20.2606C116.702 20.1272 116.374 20.0605 116.01 20.0605C115.662 20.0605 115.355 20.1196 115.09 20.2378C114.828 20.3561 114.623 20.5152 114.475 20.7153C114.327 20.9154 114.253 21.1398 114.253 21.3884C114.253 21.6491 114.324 21.8583 114.466 22.016C114.61 22.1706 114.786 22.2919 114.993 22.3798C115.199 22.4647 115.397 22.5344 115.585 22.589L116.963 22.9983C117.08 23.0316 117.223 23.0816 117.393 23.1483C117.562 23.212 117.729 23.3045 117.892 23.4258C118.059 23.547 118.196 23.7077 118.304 23.9078C118.415 24.1049 118.47 24.3535 118.47 24.6536C118.47 24.9356 118.416 25.1903 118.309 25.4176C118.201 25.645 118.045 25.8391 117.841 25.9998C117.638 26.1604 117.394 26.2832 117.111 26.3681C116.827 26.456 116.51 26.5 116.158 26.5Z" fill="white"/>
<path d="M125.306 26.5002C124.856 26.5002 124.451 26.429 124.09 26.2865C123.732 26.1409 123.435 25.9363 123.197 25.6725C122.963 25.4088 122.806 25.0965 122.726 24.7357L123.114 24.6629C123.234 25.1116 123.49 25.4664 123.882 25.7271C124.273 25.9878 124.748 26.1182 125.306 26.1182C125.695 26.1182 126.034 26.0576 126.323 25.9363C126.613 25.815 126.838 25.6452 126.999 25.4269C127.159 25.2056 127.239 24.9479 127.239 24.6538C127.239 24.4325 127.198 24.2476 127.114 24.099C127.031 23.9505 126.925 23.8307 126.795 23.7397C126.669 23.6458 126.536 23.5715 126.397 23.5169C126.259 23.4623 126.135 23.4199 126.028 23.3896L124.363 22.8984C124.122 22.8287 123.914 22.7438 123.738 22.6438C123.566 22.5437 123.424 22.43 123.313 22.3027C123.202 22.1753 123.119 22.0359 123.063 21.8843C123.011 21.7327 122.985 21.5705 122.985 21.3977C122.985 21.0642 123.076 20.7686 123.257 20.5109C123.442 20.2501 123.698 20.047 124.025 19.9015C124.352 19.7529 124.73 19.6787 125.158 19.6787C125.593 19.6787 125.983 19.7575 126.328 19.9151C126.673 20.0728 126.955 20.2956 127.174 20.5836C127.396 20.8686 127.535 21.2036 127.591 21.5887L127.202 21.6615C127.159 21.3431 127.045 21.0642 126.86 20.8247C126.675 20.5821 126.436 20.3942 126.143 20.2608C125.85 20.1274 125.522 20.0607 125.158 20.0607C124.81 20.0607 124.503 20.1198 124.238 20.238C123.976 20.3563 123.771 20.5154 123.623 20.7155C123.475 20.9156 123.401 21.14 123.401 21.3886C123.401 21.6493 123.472 21.8585 123.613 22.0162C123.758 22.1708 123.934 22.2921 124.141 22.38C124.347 22.4649 124.545 22.5346 124.733 22.5892L126.111 22.9985C126.228 23.0318 126.371 23.0818 126.541 23.1485C126.71 23.2122 126.877 23.3047 127.04 23.426C127.207 23.5472 127.344 23.7079 127.452 23.908C127.563 24.1051 127.618 24.3537 127.618 24.6538C127.618 24.9358 127.564 25.1905 127.456 25.4178C127.349 25.6452 127.193 25.8393 126.989 26C126.786 26.1606 126.542 26.2834 126.259 26.3683C125.975 26.4562 125.658 26.5002 125.306 26.5002Z" fill="white"/>
<path d="M132.01 26.4996C131.517 26.4996 131.079 26.398 130.697 26.1949C130.315 25.9918 130.014 25.7068 129.795 25.3399C129.576 24.9701 129.467 24.538 129.467 24.0438V19.8145H129.855V23.9165C129.855 24.3197 129.925 24.6638 130.064 24.9488C130.202 25.2308 130.381 25.4597 130.6 25.6355C130.819 25.8084 131.053 25.9357 131.303 26.0175C131.553 26.0964 131.788 26.1358 132.01 26.1358C132.232 26.1358 132.468 26.0964 132.718 26.0175C132.968 25.9357 133.202 25.8084 133.421 25.6355C133.64 25.4597 133.819 25.2308 133.957 24.9488C134.096 24.6638 134.165 24.3197 134.165 23.9165V19.8145H134.554V24.0438C134.554 24.535 134.444 24.9655 134.226 25.3354C134.007 25.7022 133.706 25.9887 133.324 26.1949C132.942 26.398 132.504 26.4996 132.01 26.4996Z" fill="white"/>
<path d="M136.87 26.3632V19.8145H137.259V26.3632H136.87Z" fill="white"/>
<path d="M141.459 26.3632V20.1965H139.017V19.8145H144.289V20.1965H141.848V26.3632H141.459Z" fill="white"/>
<path d="M148.163 26.5C147.713 26.5 147.308 26.4288 146.947 26.2863C146.589 26.1407 146.292 25.9361 146.054 25.6723C145.82 25.4086 145.663 25.0963 145.583 24.7355L145.971 24.6627C146.091 25.1114 146.347 25.4662 146.739 25.7269C147.13 25.9876 147.605 26.118 148.163 26.118C148.552 26.118 148.891 26.0574 149.181 25.9361C149.47 25.8148 149.695 25.645 149.856 25.4267C150.016 25.2054 150.096 24.9477 150.096 24.6536C150.096 24.4323 150.055 24.2474 149.971 24.0988C149.888 23.9503 149.782 23.8305 149.652 23.7395C149.526 23.6456 149.393 23.5713 149.255 23.5167C149.116 23.4621 148.993 23.4197 148.885 23.3894L147.22 22.8982C146.979 22.8285 146.771 22.7436 146.596 22.6436C146.423 22.5435 146.281 22.4298 146.17 22.3025C146.059 22.1751 145.976 22.0357 145.92 21.8841C145.868 21.7325 145.842 21.5703 145.842 21.3975C145.842 21.064 145.933 20.7684 146.115 20.5107C146.3 20.2499 146.555 20.0468 146.882 19.9013C147.209 19.7527 147.587 19.6785 148.015 19.6785C148.45 19.6785 148.84 19.7573 149.185 19.9149C149.531 20.0726 149.813 20.2954 150.032 20.5834C150.254 20.8684 150.392 21.2034 150.448 21.5885L150.059 21.6613C150.016 21.3429 149.902 21.064 149.717 20.8245C149.532 20.5819 149.293 20.394 149 20.2606C148.707 20.1272 148.379 20.0605 148.015 20.0605C147.667 20.0605 147.36 20.1196 147.095 20.2378C146.833 20.3561 146.628 20.5152 146.48 20.7153C146.332 20.9154 146.258 21.1398 146.258 21.3884C146.258 21.6491 146.329 21.8583 146.471 22.016C146.616 22.1706 146.791 22.2919 146.998 22.3798C147.204 22.4647 147.402 22.5344 147.59 22.589L148.968 22.9983C149.085 23.0316 149.228 23.0816 149.398 23.1483C149.568 23.212 149.734 23.3045 149.897 23.4258C150.064 23.547 150.201 23.7077 150.309 23.9078C150.42 24.1049 150.475 24.3535 150.475 24.6536C150.475 24.9356 150.422 25.1903 150.314 25.4176C150.206 25.645 150.05 25.8391 149.847 25.9998C149.643 26.1604 149.4 26.2832 149.116 26.3681C148.832 26.456 148.515 26.5 148.163 26.5Z" fill="white"/>
</svg>
